<?xml version="1.0" encoding="UTF-8"?>
<svg id="Layer_1" data-name="Layer 1" xmlns="http://www.w3.org/2000/svg" width="300" height="300" viewBox="0 0 300 300">
  <defs>
    <style>
      .cls-1 {
        stroke-width: 0px;
      }
    </style>
  </defs>
  <path class="cls-1" d="M240.16,90.1c-15.88-15.88-37.25-24.68-59.85-24.68s-43.96,8.79-59.85,24.68l-1.7,1.7c-4.07-.66-7.75-1.04-11.82-1.04-18.91,0-37.25,7.47-50.77,21.27-28.08,28.08-28.08,73.46,0,101.54,13.52,13.52,31.48,20.99,50.77,20.99h75.17c22.31-.38,43.02-9.17,58.53-24.68,32.71-33.19,32.71-86.98-.47-119.79ZM107.13,218.97v.09c-15.22,0-29.12-6.43-39.62-17.3-22.03-22.03-22.03-57.49,0-79.23,10.49-10.49,24.68-16.55,39.62-16.55h.38c3.03,0,5.39.38,8.13.66,3.03.66,5.77,1.04,8.79,1.99,5.39,1.7,10.49,4.44,14.84,7.47,1.99,1.7,4.44,3.03,6.05,5.11l1.7,1.7,22.98,22.98c3.03,3.03,3.03,7.75,0,11.16-1.7,1.7-3.4,2.36-5.39,2.36s-4.07-.66-5.39-2.36l-18.91-18.91-4.07-4.07c-.66-.66-1.32-1.04-1.7-1.7-5.39-4.73-11.82-7.75-18.91-9.17-2.36-.66-5.11-.66-7.47-.66h-1.04c-10.49.38-19.95,4.44-27.42,11.82-15.88,15.88-15.88,41.32,0,57.2,7.75,7.75,17.59,11.82,28.74,11.82h7.09l6.81,6.43c3.4,3.4,6.81,6.81,10.87,9.17h-26.1ZM229.28,198.74h0c-7.09,7.09-15.6,12.48-25.06,15.88-3.03,1.04-5.77,1.7-8.79,2.74-4.44,1.04-9.17,1.7-13.9,1.7h-1.32c-16.26,0-31.48-5.39-43.68-15.6-1.7-1.32-3.4-3.03-5.11-4.44l-32.52-32.52c-3.03-3.03-3.03-7.75,0-11.16,1.7-1.7,3.4-2.36,5.39-2.36s4.07.66,5.39,2.36l32.15,32.15c3.03,3.03,6.43,5.39,9.83,7.75,8.13,5.11,17.59,7.75,27.7,7.75,4.44,0,9.17-.66,13.24-1.7,2.74-.66,5.39-1.7,7.75-2.74,6.05-2.74,11.82-6.43,16.92-11.53,20.61-20.61,20.61-54.46,0-75.17-10.49-10.49-24.02-15.6-37.54-15.6-10.49,0-20.61,3.03-29.78,9.17-4.44-3.4-9.17-6.43-14.56-8.79,12.86-10.49,28.74-15.88,44.34-15.88,17.59,0,35.17,6.81,48.69,19.95,27.61,27.32,27.61,71.01.85,98.05Z"/>
</svg>