<?xml version="1.0" encoding="utf-8"?>
<!-- Generator: Adobe Illustrator 28.2.0, SVG Export Plug-In . SVG Version: 6.00 Build 0)  -->
<svg version="1.1" id="layer" xmlns="http://www.w3.org/2000/svg" xmlns:xlink="http://www.w3.org/1999/xlink" x="0px" y="0px"
	 viewBox="0 0 300 300" style="enable-background:new 0 0 300 300;" xml:space="preserve">
<g>
	<g>
		<path d="M45.6,157.3c0.9,0,1.7,0.2,2.4,0.5c-1.7-2.2-2.7-4.8-2.7-7.8c0-3,1-5.6,2.5-7.7c-0.7,0.3-1.4,0.5-2.2,0.5
			c-3.1,0-5.6-2.5-5.6-5.6c0-0.7,0.1-1.5,0.4-2.1c-3.3,4.1-5.4,9.3-5.4,15c0,5.6,2,10.8,5.3,14.8c-0.2-0.6-0.3-1.2-0.3-1.9
			C39.9,159.8,42.5,157.3,45.6,157.3z"/>
		<path d="M51.2,137.1c0,0.9-0.2,1.7-0.5,2.4c2.2-1.7,4.9-2.7,7.8-2.7c3.6,0,6.9,1.5,9.2,3.8c2.1,2.1,5.3,2.1,7.4,0
			c2.1-2.1,2.1-5.3,0-7.4c-4.2-4.1-10.1-6.8-16.6-6.8c-5.6,0-10.7,2-14.7,5.2c0.6-0.2,1.2-0.3,1.8-0.3
			C48.7,131.4,51.2,134,51.2,137.1z"/>
		<path d="M67.7,159.2L67.7,159.2c-2.3,2.5-5.6,3.9-9.2,3.9c-2.9,0-5.6-1-7.8-2.6c0.3,0.7,0.5,1.5,0.5,2.3c0,3.1-2.5,5.6-5.6,5.6
			c-0.7,0-1.4-0.1-2-0.4c4.1,3.3,9.3,5.3,14.9,5.3c6.5,0,12.3-2.6,16.6-6.9c2.1-2.1,2.1-5.3,0-7.4C73,157.4,69.8,157.4,67.7,159.2z"
			/>
		<circle cx="45.6" cy="137.1" r="4.6"/>
		<circle cx="45.6" cy="162.9" r="4.6"/>
	</g>
	<path d="M98.2,154.8c1.5-1.2,1.8-0.4,2.9,0.7c0.6,0.6,2.3,1.8,1.2,2.6c-2.3,1.9-4.4,2.8-7.5,2.8c-6.8,0-11.6-5.1-11.3-11.8
		c0.2-3.1,1.3-5.9,3.7-7.8c2.2-1.8,4.8-2.6,7.6-2.5c1.5,0,2.6,0.3,3.9,0.7c0.9,0.3,1.8,0.7,2.5,1.3c1.5,1.2,0.7,1.8-0.3,2.9
		c-0.3,0.3-0.4,0.6-0.7,0.7c-0.6,0.6-1,1-1.8,0.4c-1.5-1-3.5-1.6-5.3-1.2c-5.9,1.5-5.6,11.9,1.6,11.9
		C95.9,156,97.3,155.6,98.2,154.8L98.2,154.8z M261.3,160.6c-1,0-1.8-0.7-1.8-1.8v-23.1c0-1,0.7-1.8,1.8-1.8h1.9
		c1,0,1.8,0.7,1.8,1.8v23.1c0,1-0.7,1.8-1.8,1.8H261.3z M251.2,157.9c-2.1,1.9-4.1,2.9-7.1,2.9c-6,0-8.8-5-8.8-10.4v-9.4
		c0-1,0.7-1.8,1.8-1.8h1.9c1,0,1.8,0.7,1.8,1.8v9.4c0,3.1,1.6,5.4,5,5.4s5.3-2.8,5.3-5.7v-9.1c0-1,0.7-1.8,1.8-1.8h1.9
		c1,0,1.8,0.7,1.8,1.8v17.8c0,1-0.7,1.8-1.8,1.8h-1.6c-1,0-1.6-0.9-1.8-1.8L251.2,157.9L251.2,157.9L251.2,157.9z M228.3,139.4h3.7
		c1,0,1.8,0.9,1.8,1.8v1.2c0,1-0.7,1.8-1.8,1.8h-3.7v14.7c0,1-0.7,1.8-1.8,1.8h-1.9c-1,0-1.8-0.7-1.8-1.8v-20.1
		c0-4.4,2.5-7.9,7.1-8.4h2.8c1,0,1.8,0.9,1.8,1.8v1.2c0,1-0.7,1.8-1.8,1.8h-1.5c-2.2,0-3.1,1.6-3.1,3.7v0.7L228.3,139.4L228.3,139.4
		L228.3,139.4z M214.9,139.4h4.1c1,0,1.8,0.7,1.8,1.8v1.2c0,1-0.7,1.8-1.8,1.8h-4.1v8.9c0,1.8,0.9,2.6,2.6,2.6h0.9
		c1,0,1.8,0.7,1.8,1.8v1.3c0,1-0.7,1.8-1.8,1.8h-2.5c-4.4-0.3-6.3-3.1-6.3-7.5v-17.3c0-1,0.7-1.8,1.8-1.8h1.9c1,0,1.8,0.7,1.8,1.8
		v3.7L214.9,139.4L214.9,139.4z M156,139.4h4.1c1,0,1.8,0.7,1.8,1.8v1.2c0,1-0.7,1.8-1.8,1.8H156v8.9c0,1.8,0.9,2.8,2.6,2.8h0.9
		c1,0,1.8,0.7,1.8,1.8v1.2c0,1-0.7,1.8-1.8,1.8h-1.2c-4.8,0-7.6-2.1-7.6-7.5v-17.3c0-1,0.7-1.8,1.8-1.8h1.9c1,0,1.8,0.7,1.8,1.8v3.7
		L156,139.4L156,139.4z M132.1,141.9c1.9-1.9,4.1-2.9,6.8-2.9c6,0,9.1,4.8,9.1,10.4v9.4c0,1-0.7,1.8-1.8,1.8h-1.9
		c-1,0-1.8-0.7-1.8-1.8v-9.4c0-3.1-1.6-5.4-5-5.4s-5.3,2.6-5.3,5.7v9.1c0,1-0.7,1.8-1.8,1.8h-1.9c-1,0-1.8-0.7-1.8-1.8V141
		c0-1,0.7-1.8,1.8-1.8h1.6c1,0,1.6,0.9,1.8,1.8L132.1,141.9L132.1,141.9z M191.1,141.9c1.9-1.9,4.1-2.9,6.8-2.9
		c6,0,9.1,4.8,9.1,10.4v9.4c0,1-0.7,1.8-1.8,1.8h-1.9c-1,0-1.8-0.7-1.8-1.8v-9.4c0-3.1-1.6-5.4-5-5.4s-5.3,2.6-5.3,5.7v9.1
		c0,1-0.7,1.8-1.8,1.8h-1.9c-1,0-1.8-0.7-1.8-1.8V141c0-1,0.7-1.8,1.8-1.8h1.6c1,0,1.6,0.9,1.8,1.8L191.1,141.9L191.1,141.9z
		 M114,138.8c-6.5,0-11,4.7-11,11.2s4.6,11.2,11,11.2s11.2-4.6,11.2-11.2S120.5,138.8,114,138.8z M167.8,151.9
		c0.4,2.9,3.4,4.3,6.2,4.3c1.3,0,2.8-0.3,3.9-0.9c0.1-0.1,0.4-0.1,0.6-0.3c0.7-0.4,1.3-0.6,1.9,0l1,1l0.9,0.9
		c0.9,1.2,0.3,1.5-0.7,2.1c-2.2,1.5-5,2.2-7.6,2.2c-7.1,0-11.8-4.3-11.8-11.3s4.7-11.2,11.3-11.2s10.7,3.9,10.9,10.9
		c0,1.9,0.1,2.5-1.8,2.5h-14.8L167.8,151.9L167.8,151.9z M114,143.8c3.4,0,5.6,2.9,5.6,6.2s-2.1,6-5.6,6s-5.6-2.6-5.6-6
		S110.6,143.8,114,143.8z M167.9,147.4h11c-0.4-2.8-2.6-3.8-5.3-3.8S168.7,144.9,167.9,147.4z"/>
</g>
</svg>
