<?xml version="1.0" encoding="utf-8"?>
<!-- Generator: Adobe Illustrator 28.2.0, SVG Export Plug-In . SVG Version: 6.00 Build 0)  -->
<svg version="1.1" id="Layer_1" xmlns="http://www.w3.org/2000/svg" xmlns:xlink="http://www.w3.org/1999/xlink" x="0px" y="0px"
	 viewBox="0 0 300 300" style="enable-background:new 0 0 300 300;" xml:space="preserve">
<g>
	<path d="M75.9,145.8l0.2,0.2l6.4-2.1l-0.2-0.4c-2.5-6-8.1-9.7-14.7-9.7c-4.6,0-8.5,1.5-11.6,4.6c-3.1,3.1-4.6,6.9-4.6,11.4
		s1.5,8.3,4.6,11.4c3.1,3.1,7,4.6,11.6,4.6c6.6,0,12.2-3.7,14.7-9.7l0.2-0.4l-6.4-2.1l-0.2,0.2c-1.3,3.5-4.4,5.4-8.3,5.4
		c-2.7,0-4.8-1-6.6-2.7c-1.7-1.7-2.7-4.1-2.7-6.8s1-5,2.7-7c1.7-1.5,3.9-2.5,6.6-2.5v0C71.3,140.3,74.4,142.3,75.9,145.8z"/>
	<path d="M145.3,138.6c-2.9-3.1-6.6-4.6-10.8-4.6s-7.7,1.5-10.4,4.4v-3.9h-6.8V177h6.8v-15.6c2.7,2.9,6.2,4.4,10.4,4.4
		s7.9-1.5,10.8-4.6c2.9-3.1,4.2-6.8,4.2-11.2S148.2,141.7,145.3,138.6L145.3,138.6z M139.9,156.8c-1.7,1.7-3.9,2.7-6.6,2.7
		c-2.7,0-4.8-1-6.6-2.7c-1.7-1.7-2.7-4.1-2.7-6.8s1-5,2.7-7c1.7-1.7,3.9-2.7,6.6-2.7c2.7,0,4.8,1,6.6,2.7c1.7,1.7,2.5,4.1,2.5,7
		C142.6,152.7,141.6,155,139.9,156.8z"/>
	<path d="M160.5,138.4v-3.7h-6.8v30.5h6.8v-17.2c0-2.7,1.2-4.8,3.3-6.4c2.1-1.4,4.8-1.7,7.9-0.8l0.4,0.2v-6.6
		C167.7,133.4,163.4,134.9,160.5,138.4z"/>
	<path d="M190.1,134.1L190.1,134.1c-4.5,0-8.3,1.6-11.4,4.7c-3.1,2.9-4.6,6.8-4.6,11.2s1.5,8.3,4.6,11.4c3.1,3.1,7,4.6,11.6,4.6
		c6.4,0,11.8-3.3,14.5-8.5l0.2-0.4l-5.8-2.5l-0.2,0.2c-1.7,3.3-4.8,5.2-8.5,5.2c-4.8,0-8.5-2.9-9.5-7.5h24.7v-0.4
		c0.6-5-0.8-9.3-3.9-12.8C199,135.9,194.9,134.1,190.1,134.1z M181.2,146.9c1.2-4.2,4.6-6.8,8.7-6.8s7.7,2.7,8.9,6.8H181.2z"/>
	<path d="M223.9,147.1L223.9,147.1c-3.7-0.8-6.9-1.3-6.9-3.9c0-2.1,2.1-3.5,5.2-3.5c3.5,0,5.4,1.5,5.8,4.4v0.4l6.8-1.4v-0.4
		c-1-5.4-5.8-8.7-12.5-8.7c-3.5,0-6.4,1-8.7,2.7s-3.5,4.1-3.5,6.8c0,4.1,2.5,7,6.8,7.9c1.2,0.2,2.3,0.4,3.5,0.6
		c4.2,0.8,8.1,1.5,8.1,4.2c0,2.1-2.5,3.7-6.2,3.7s-5.8-1.5-6.2-4.4v-0.4l-6.8,1.4v0.4c1,5.4,5.8,8.7,13.1,8.7c3.7,0,6.8-1,9.3-2.7
		s3.9-4.1,3.9-6.8C235.3,149.2,229.1,148.1,223.9,147.1z"/>
	<path d="M253.4,147.1L253.4,147.1c-3.7-0.8-6.9-1.3-6.9-3.9c0-2.1,2.1-3.5,5.2-3.5c3.5,0,5.4,1.5,5.8,4.4v0.4l6.8-1.4v-0.4
		c-1-5.4-5.8-8.7-12.5-8.7c-3.5,0-6.4,1-8.7,2.7s-3.5,4.1-3.5,6.8c0,4.1,2.5,7,6.8,7.9c1.2,0.2,2.3,0.4,3.5,0.6
		c4.2,0.8,8.1,1.5,8.1,4.2c0,2.1-2.5,3.7-6.2,3.7c-3.7,0-5.8-1.5-6.2-4.4v-0.4l-6.8,1.4v0.4c1,5.4,5.8,8.7,13.1,8.7
		c3.7,0,6.8-1,9.3-2.7s3.9-4.1,3.9-6.8C264.8,149.2,258.4,148.1,253.4,147.1z"/>
	<path d="M81.5,103.6C81.5,103.6,81.5,103.7,81.5,103.6C81.5,103.7,81.5,103.7,81.5,103.6L81.5,103.6z"/>
	<path d="M117,131.6l5.8-3.1c-8.1-15.3-23.9-24.9-41.3-24.9c-5.8,0-11.5,1.1-16.8,3.1v0c-0.2,0.1-0.4,0.2-0.5,0.2
		c-0.1,0.1-0.3,0.1-0.4,0.2v0C46.5,114.4,35,131.4,35,150c0,3.5,0.4,6.9,1.2,10.2h0c0.2,0.7,0.4,1.4,0.5,2c0,0,0,0.1,0,0.1
		c2.6,9.2,7.9,17.6,15.5,23.8c8.3,6.6,18.5,10.2,29.2,10.2h1.9c3.3-0.2,6.4-2.1,7.5-5.2l2.1-5l-0.2,0l21.1-51.3H107l-8.9,22.8
		l-9.1-22.8h-7.3l12.8,31.1l-8.1,18.9l0,0l-0.2,0.4l-1,2.3l0.1,0l-0.5,1.2c-0.4,0.8-1,1.4-1.7,1.4h-1.5c-18.5,0-35-13.1-39-31.1
		l-0.2,0c-0.7-2.9-1-5.9-1-8.9c0-16.1,10.1-30.7,24.9-36.9l0,0c4.8-2.1,10-3.1,15.3-3.1C96.4,110,110.1,118.3,117,131.6z"/>
</g>
</svg>
