<?xml version="1.0" encoding="utf-8"?>
<!-- Generator: Adobe Illustrator 28.2.0, SVG Export Plug-In . SVG Version: 6.00 Build 0)  -->
<svg version="1.1" id="Layer_1" xmlns="http://www.w3.org/2000/svg" xmlns:xlink="http://www.w3.org/1999/xlink" x="0px" y="0px"
	 viewBox="0 0 300 300" style="enable-background:new 0 0 300 300;" xml:space="preserve">
<style type="text/css">
	.st0{fill-rule:evenodd;clip-rule:evenodd;}
</style>
<path d="M90.6,118.4v48.8l6.3,0V144H112v-6.1H96.9v-13.3h19.7v-6.2C116.6,118.4,90.6,118.4,90.6,118.4z M127.9,128.3
	c2.3,0,4.1-1.8,4.1-4.1s-1.8-4.1-4.1-4.1s-4.1,1.8-4.1,4.1S125.7,128.3,127.9,128.3z M124.7,134.4v32.8h6.3v-32.8H124.7z"/>
<path class="st0" d="M154.3,133.5c-8.4,0-14.2,7.1-14.2,15.4s5.8,15.4,14.2,15.4c3.8,0,7-1.5,9.3-3.9v4.3c0,5.4-4.3,10-9.8,10
	c-2,0-4-0.8-5.6-1.9l-3.2,5.5c2.5,1.6,5.5,2.6,8.7,2.6c8.9,0,16.1-7.2,16.1-16.1v-30.4h-6.2v2.9C161.3,135,158.1,133.5,154.3,133.5
	L154.3,133.5z M146.4,148.9c0-5.2,4-9.3,8.6-9.3s8.6,4.1,8.6,9.3s-4,9.3-8.6,9.3S146.4,154.1,146.4,148.9L146.4,148.9z"/>
<path d="M192.5,139.6c-3.7,0-6.7,3.2-6.7,6.9v20.7h-6.3v-32.8h6.3v3c1.8-2.4,4.6-3.9,8.1-3.9c4.4,0,7.8,2.2,9.7,5.5
	c2.2-3.2,5.7-5.5,10-5.5c7.2,0,11.6,5.8,11.6,12.9v20.8H219v-20.7c0-3.7-3-6.9-6.7-6.9s-6.7,3.2-6.7,6.9v20.7h-6.3v-20.7
	C199.2,142.8,196.2,139.6,192.5,139.6z"/>
<path class="st0" d="M258.7,138.1c-2.8-2.9-6.6-4.7-11.1-4.7c-9.3,0-16,7.9-16,17.4s6.6,17.4,16,17.4c4.4,0,8.3-1.8,11.1-4.7v3.7
	h6.3v-32.8h-6.3V138.1L258.7,138.1z M238,150.8c0-6.2,4.8-11.2,10.4-11.2s10.4,4.9,10.4,11.2S254,162,248.4,162
	C242.8,162,238,157.1,238,150.8z"/>
<g>
	<path d="M66.7,139.5c-5.6,0-10.2,4.4-10.5,10v-9.9v0H66.7c5.8,0,10.6-4.7,10.6-10.6c0-5.8-4.7-10.6-10.6-10.6H56.1v0v0H45.6
		c-5.8,0-10.6,4.7-10.6,10.6c0,5.7,4.6,10.4,10.3,10.5C39.6,139.6,35,144.3,35,150c0,5.8,4.6,10.4,10.4,10.5
		c-5.7,0.1-10.4,4.8-10.4,10.5c0,5.8,4.7,10.6,10.6,10.6c5.8,0,10.6-4.7,10.6-10.6v-10.5v0v-9.9c0.3,5.5,4.9,10,10.5,10
		c5.8,0,10.6-4.7,10.6-10.6C77.2,144.2,72.5,139.5,66.7,139.5z"/>
</g>
</svg>
