<?xml version="1.0" encoding="UTF-8"?>
<svg id="Layer_1" data-name="Layer 1" xmlns="http://www.w3.org/2000/svg" width="300" height="300" viewBox="0 0 300 300">
  <defs>
    <style>
      .cls-1 {
        stroke-width: 0px;
      }
    </style>
  </defs>
  <path class="cls-1" d="M150,35c-63.52,0-115,51.48-115,115s51.48,115,115,115,115-51.48,115-115-51.48-115-115-115ZM59.71,151.2l89.09,89.09c-48.93-.63-88.46-40.17-89.09-89.09h0ZM170.21,238.03l-108.25-108.25c9.18-40.14,45.11-70.09,88.03-70.09,30,0,56.59,14.64,73.01,37.16l-12.5,11.03c-13.32-19.1-35.46-31.6-60.51-31.6-31.9,0-59.06,20.26-69.33,48.61l94.44,94.43c22.94-8.31,40.57-27.66,46.48-51.64h-39.14v-17.68h57.87c0,42.93-29.96,78.85-70.1,88.03h0Z"/>
</svg>