<?xml version="1.0" encoding="UTF-8"?>
<svg id="Layer_1" data-name="Layer 1" xmlns="http://www.w3.org/2000/svg" width="230" height="96.07" viewBox="0 0 230 96.07">
  <defs>
    <style>
      .cls-1 {
        stroke-width: 0px;
      }
    </style>
  </defs>
  <path class="cls-1" d="M137.84,32.7c-5.04,0-8.8,2.48-8.8,8.44,0,4.49,2.48,7.61,8.53,7.61,5.13,0,8.61-3.02,8.61-7.79,0-5.41-3.12-8.25-8.34-8.25h0ZM127.76,74.78c-1.19,1.46-2.38,3.02-2.38,4.86,0,3.66,4.67,4.77,11.09,4.77,5.32,0,12.56-.37,12.56-5.32,0-2.94-3.48-3.12-7.89-3.4l-13.38-.91h0ZM154.89,32.98c1.65,2.11,3.39,5.04,3.39,9.26,0,10.17-7.97,16.13-19.52,16.13-2.94,0-5.59-.37-7.24-.82l-3.03,4.86,8.98.55c15.86,1.01,25.21,1.47,25.21,13.66,0,10.54-9.26,16.5-25.21,16.5s-22.92-4.22-22.92-11.46c0-4.12,1.83-6.32,5.04-9.35-3.03-1.28-4.03-3.57-4.03-6.05,0-2.02,1.01-3.85,2.66-5.59,1.65-1.74,3.48-3.48,5.68-5.5-4.49-2.2-7.88-6.97-7.88-13.75,0-10.54,6.97-17.78,20.99-17.78,3.94,0,6.33.36,8.44.92h17.88v7.79l-8.43.64h0ZM179.45,16.32c-5.23,0-8.25-3.03-8.25-8.25s3.02-8.06,8.25-8.06,8.34,2.84,8.34,8.06-3.02,8.25-8.34,8.25ZM167.63,71.4v-7.24l4.68-.64c1.28-.18,1.47-.46,1.47-1.84v-26.95c0-1.01-.27-1.65-1.19-1.92l-4.95-1.74,1.01-7.42h18.98v38.04c0,1.47.09,1.65,1.47,1.84l4.67.64v7.24h-26.13ZM230,67.85c-3.94,1.92-9.72,3.67-14.94,3.67-10.91,0-15.03-4.4-15.03-14.76v-24.01c0-.55,0-.92-.74-.92h-6.42v-8.16c8.07-.92,11.27-4.95,12.28-14.94h8.71v13.02c0,.64,0,.92.73.92h12.92v9.17h-13.66v21.91c0,5.41,1.28,7.51,6.23,7.51,2.57,0,5.23-.64,7.42-1.47l2.48,8.07"/>
  <path class="cls-1" d="M94.18,43.8L52.27,1.89c-2.41-2.41-6.33-2.41-8.74,0,0,0,0,0,0,0l-8.7,8.7,11.04,11.04c2.65-.9,5.58-.22,7.55,1.76,1.99,1.99,2.67,4.94,1.74,7.6l10.64,10.64c2.57-.89,5.54-.31,7.6,1.75,2.87,2.87,2.87,7.53,0,10.4,0,0,0,0,0,0-2.87,2.87-7.53,2.88-10.4,0-2.1-2.1-2.73-5.26-1.6-8.01l-9.92-9.92v26.11c.72.36,1.38.83,1.94,1.39,2.87,2.87,2.87,7.53,0,10.4,0,0,0,0,0,0-2.87,2.87-7.53,2.87-10.4,0-2.87-2.87-2.88-7.53,0-10.4.69-.69,1.51-1.24,2.41-1.61v-26.35c-.9-.37-1.72-.91-2.41-1.61-2.18-2.17-2.7-5.37-1.58-8.04l-10.88-10.88L1.81,43.6c-2.41,2.41-2.42,6.33,0,8.75,0,0,0,0,0,0l41.91,41.91c2.41,2.41,6.33,2.41,8.74,0l41.72-41.71c2.41-2.42,2.41-6.33,0-8.75"/>
</svg>