<?xml version="1.0" encoding="UTF-8"?>
<svg id="Layer_1" data-name="Layer 1" xmlns="http://www.w3.org/2000/svg" width="230" height="230" viewBox="0 0 230 230">
  <defs>
    <style>
      .cls-1 {
        stroke-width: 0px;
      }
    </style>
  </defs>
  <path class="cls-1" d="M0,0v230h230V0H0ZM121.23,196.99c-3.39,6.89-9.86,11.41-17.36,13.6-11.52,2.65-22.54,1.14-30.74-3.78-5.49-3.37-9.77-8.55-12.68-14.52,5.84-3.56,11.65-7.15,17.49-10.71.15.07.61.9,1.22,1.97,2.23,3.74,4.15,6.38,7.94,8.24,3.72,1.27,11.87,2.08,15.02-4.46,1.92-3.32,1.31-14.17,1.31-26,0-18.58.09-37.04.09-55.62h21.51c0,19.79.11,39.51,0,59.23.04,12.09,1.09,23.02-3.8,32.05ZM210.48,190.91c-7.48,25.58-49.17,26.41-65.83,9.51-3.52-3.98-5.73-6.06-7.83-10.65q8.85-5.09,17.47-10.08c4.68,7.19,9.01,11.15,16.79,12.77,10.56,1.29,21.19-2.34,18.8-13.56-2.45-9.16-21.62-11.39-34.67-21.19-13.25-8.9-16.35-30.52-5.47-42.87,3.63-4.57,9.82-7.98,16.31-9.62,2.25-.28,4.53-.59,6.78-.87,13.01-.26,21.14,3.17,27.11,9.84,1.66,1.68,3.02,3.5,5.55,7.43-6.93,4.42-6.91,4.37-16.83,10.8-2.12-4.57-5.64-7.43-9.36-8.68-5.77-1.75-13.05.15-14.56,6.25-.52,1.88-.42,3.63.42,6.73,2.34,5.33,10.19,7.65,17.23,10.89,20.27,8.22,27.11,17.03,28.79,27.53,1.62,9.03-.39,14.89-.7,15.76Z"/>
</svg>