<?xml version="1.0" encoding="UTF-8"?>
<svg id="Layer_1" data-name="Layer 1" xmlns="http://www.w3.org/2000/svg" width="300" height="300" viewBox="0 0 300 300">
  <defs>
    <style>
      .cls-1 {
        stroke-width: 0px;
      }
    </style>
  </defs>
  <path class="cls-1" d="M57.39,148.22c0,3.09.8,6.13,2.34,8.81,2.07,3.62,5.34,6.4,9.24,7.87,1.94.72,4.03,1.12,6.22,1.12.41,0,.82-.02,1.22-.05,5.78-.39,10.81-3.56,13.76-8.17,1.78-2.77,2.81-6.05,2.81-9.58,0-9.81-7.98-17.8-17.8-17.8s-17.8,7.98-17.8,17.8Z"/>
  <path class="cls-1" d="M228.89,177.35c-14.84,0-27.13-11.1-29.03-25.43-6.11-.22-12.56-.22-18.64,0-1.9,14.33-14.19,25.43-29.03,25.43-1.47,0-2.93-.11-4.38-.33-4.77,7.53-10.58,14.58-17.33,20.95-10.45,9.86-22.23,17.16-35.01,21.72l-2.34.83-2.21-1.14c-16.17-8.31-23.88-25.89-18.98-42.06-2.6-.29-5.14-.93-7.57-1.9-.81,1.69-1.62,3.37-2.44,5.05-4.81,9.89-9.79,20.11-11.63,31.21-1.99,11.98-2.77,33.84,14.28,45.66,23.28,16.13,47.96,3.87,76.54-10.33,14.28-7.09,29.05-14.43,44.3-18.19,5.77-1.42,11.67-2.27,17.38-3.1,10.66-1.54,20.72-2.99,29.12-7.85,9.01-5.22,15.17-13.93,16.9-23.91h0c1.31-7.55.08-15.14-3.21-21.88-4.74,3.3-10.5,5.25-16.7,5.25Z"/>
  <path class="cls-1" d="M171.65,126.18c4.2,3.74,7.32,8.67,8.83,14.26,6.71-.25,13.42-.25,20.13,0,1.4-5.17,4.19-9.85,8.06-13.55l-18.6-37.94-18.42,37.24Z"/>
  <path class="cls-1" d="M142.54,163c2.87,1.86,6.22,2.85,9.64,2.85.61,0,1.21-.03,1.8-.09,7.59-.76,13.78-6.31,15.51-13.57.32-1.33.49-2.71.49-4.13,0-2.6-.57-5.17-1.68-7.53-.56-1.2-1.26-2.33-2.08-3.37-3.26-4.19-8.34-6.89-14.04-6.89-.9,0-1.78.07-2.64.2-8.56,1.28-15.15,8.68-15.15,17.6h0c0,6.26,3.25,11.77,8.15,14.94Z"/>
  <path class="cls-1" d="M214.16,138.1c-.66.97-1.23,2-1.68,3.09-.89,2.11-1.38,4.43-1.38,6.87,0,1.56.2,3.11.61,4.61,2.04,7.58,8.97,13.18,17.19,13.18,3.64,0,7.2-1.12,10.18-3.21,3.28-2.29,5.7-5.62,6.86-9.45.49-1.63.76-3.35.76-5.13h0c0-9.25-7.1-16.87-16.13-17.72-.55-.05-1.1-.08-1.67-.08-6.13,0-11.53,3.12-14.73,7.84Z"/>
  <path class="cls-1" d="M161.71,120.34l28.4-57.43,28.32,57.78c1.18-.45,2.4-.83,3.63-1.12l28.67-84.56h-121.4l28.58,84.32c1.28.25,2.55.6,3.79,1.02Z"/>
</svg>