<?xml version="1.0" encoding="UTF-8"?>
<svg id="Layer_1" data-name="Layer 1" xmlns="http://www.w3.org/2000/svg" width="300" height="300" viewBox="0 0 300 300">
  <defs>
    <style>
      .cls-1 {
        fill-rule: evenodd;
      }

      .cls-1, .cls-2 {
        stroke-width: 0px;
      }
    </style>
  </defs>
  <path class="cls-2" d="M187.9,126.83h40.06v7.39h-15.89v38.9h-7.95v-38.9h-16.22v-7.39ZM122.01,126.83v7.39h-32.11v11.9h25.82v7.39h-25.82v12.22h32.11v7.4h-40.06v-38.9h0v-7.39h40.06ZM142.01,126.85h-10.4l37.25,46.3h10.43l-18.63-23.13,18.6-23.13-10.4.02-13.4,16.65-13.45-16.7ZM152.69,159.92l-5.21-6.48-15.89,19.74h10.43l10.67-13.26h0Z"/>
  <path class="cls-1" d="M82.23,173.13l-37.3-46.31h-9.93v46.3h7.95v-36.4l29.3,36.42h9.98Z"/>
  <path class="cls-2" d="M229.75,172.85c-.56,0-1.1-.21-1.49-.6-.41-.4-.62-.89-.61-1.47,0-.56.2-1.04.61-1.45.39-.4.93-.61,1.49-.6.56,0,1.05.2,1.46.6.42.4.63.89.64,1.45,0,.37-.1.73-.3,1.04-.19.31-.45.57-.77.75-.31.19-.67.28-1.03.28ZM243.31,153.34h3.52v13.57c0,1.25-.27,2.31-.8,3.21-.53.9-1.27,1.58-2.22,2.06-.94.48-2.05.72-3.3.72-1.15,0-2.18-.21-3.09-.61-.92-.4-1.64-1.01-2.18-1.8-.54-.8-.8-1.79-.8-2.98h3.53c0,.52.12.97.35,1.35.22.37.55.67.94.86.4.2.87.3,1.39.3.57,0,1.05-.12,1.44-.36.39-.23.69-.58.9-1.05.2-.46.31-1.03.32-1.71v-13.57h0ZM261.32,158.65c-.09-.82-.46-1.46-1.12-1.92-.66-.46-1.52-.69-2.57-.69-.74,0-1.37.11-1.9.33-.53.22-.94.52-1.22.9-.28.38-.42.81-.43,1.29,0,.4.1.75.29,1.04.19.3.44.55.77.75.34.21.7.39,1.08.51.4.14.8.25,1.19.35l1.84.45c.73.17,1.45.4,2.14.69.66.27,1.29.64,1.85,1.09.54.43.98.98,1.29,1.59.32.62.48,1.35.48,2.19,0,1.13-.29,2.12-.88,2.98-.59.85-1.43,1.52-2.54,2.01-1.1.48-2.44.72-4.01.72s-2.84-.23-3.96-.7c-1.12-.46-1.99-1.14-2.62-2.03-.63-.89-.97-1.98-1.02-3.26h3.49c.05.67.26,1.23.63,1.68.37.45.86.77,1.45,1,.6.22,1.26.33,2,.33s1.45-.12,2.03-.34c.58-.23,1.04-.55,1.37-.96.33-.41.5-.89.51-1.44,0-.5-.16-.92-.45-1.25-.3-.33-.71-.6-1.23-.83-.6-.25-1.21-.45-1.84-.6l-2.23-.56c-1.61-.41-2.89-1.03-3.82-1.86-.94-.83-1.4-1.94-1.4-3.32,0-1.13.31-2.13.94-2.99.62-.85,1.48-1.52,2.56-1.99,1.09-.48,2.32-.71,3.68-.71s2.61.23,3.66.71c1.05.47,1.87,1.13,2.47,1.97.6.84.91,1.8.93,2.89h-3.41Z"/>
</svg>