<?xml version="1.0" encoding="UTF-8"?>
<svg id="Layer_1" data-name="Layer 1" xmlns="http://www.w3.org/2000/svg" width="230" height="64.95" viewBox="0 0 230 64.95">
  <defs>
    <style>
      .cls-1 {
        stroke-width: 0px;
      }
    </style>
  </defs>
  <g>
    <path class="cls-1" d="M211.58,23.05c-.56,0-1.1.12-1.59.39l-15.25,8.81c-.99.57-1.59,1.64-1.59,2.78v17.58c0,1.14.6,2.21,1.59,2.78l3.98,2.3c1.93.95,2.65.94,3.53.94,2.86,0,4.5-1.74,4.5-4.76v-17.35c0-.25-.21-.42-.45-.42h-1.91c-.24,0-.45.18-.45.42v17.35c0,1.34-1.39,2.69-3.66,1.55l-4.14-2.43c-.15-.08-.26-.22-.26-.39v-17.58c0-.17.11-.34.26-.42l15.22-8.77c.14-.08.31-.08.45,0l15.22,8.77c.14.09.26.25.26.42v17.58c0,.17-.08.34-.23.42l-15.25,8.77c-.13.08-.31.08-.45,0l-3.92-2.33c-.12-.07-.27-.07-.39,0-1.08.61-1.28.68-2.3,1.04-.25.09-.63.22.13.65l5.12,3.01c.48.28,1.03.42,1.59.42.56,0,1.1-.14,1.59-.42l15.25-8.77c.99-.57,1.59-1.64,1.59-2.78v-17.58c0-1.14-.6-2.21-1.59-2.78l-15.25-8.81c-.48-.27-1.03-.39-1.59-.39h0Z"/>
    <path class="cls-1" d="M215.66,35.61c-4.34,0-6.93,1.85-6.93,4.92,0,3.33,2.57,4.25,6.73,4.66,4.99.49,5.37,1.22,5.37,2.2,0,1.7-1.36,2.43-4.56,2.43-4.03,0-4.92-1.01-5.21-3.01-.04-.22-.2-.39-.42-.39h-1.97c-.24,0-.45.21-.45.45,0,2.57,1.4,5.6,8.06,5.6,4.83,0,7.61-1.89,7.61-5.21s-2.25-4.17-6.93-4.79c-4.73-.63-5.18-.93-5.18-2.04,0-.91.38-2.14,3.89-2.14,3.13,0,4.29.67,4.76,2.78.04.2.22.36.42.36h1.98c.12,0,.24-.07.32-.16.08-.09.14-.2.13-.32-.31-3.63-2.73-5.34-7.61-5.34h0Z"/>
  </g>
  <path class="cls-1" d="M121.93,0c-.17,0-.34.04-.49.13-.3.18-.48.5-.49.84v24.77c0,.24-.11.46-.32.58-.21.12-.47.12-.68,0l-4.05-2.33c-.6-.35-1.34-.35-1.94,0l-16.16,9.32c-.6.35-.97,1.02-.97,1.72v18.65c0,.7.37,1.33.97,1.68l16.16,9.32c.6.35,1.34.35,1.94,0l16.16-9.32c.6-.35.97-.99.97-1.68V7.19c0-.71-.38-1.37-1-1.72L122.41.1c-.15-.08-.32-.1-.49-.1h0ZM18,23.28c-.31.01-.6.07-.87.23L.97,32.83C.37,33.18,0,33.82,0,34.51l.03,25.03c0,.35.18.67.49.84.3.18.67.18.97,0l9.58-5.5c.61-.36,1-.99,1-1.68v-11.69c0-.7.37-1.34.97-1.68l4.08-2.36c.29-.17.63-.26.97-.26.33,0,.67.08.97.26l4.08,2.36c.6.35.97.99.97,1.68v11.69c0,.7.4,1.33,1,1.68l9.58,5.5c.3.18.67.18.97,0,.3-.17.49-.49.49-.84l.03-25.03c0-.7-.37-1.34-.97-1.68l-16.16-9.32c-.27-.16-.56-.21-.87-.23h-.19ZM163.18,23.5c-.34,0-.67.09-.97.26l-16.16,9.32c-.6.35-.97.99-.97,1.68v18.65c0,.7.4,1.34,1,1.68l16.03,9.13c.59.34,1.31.36,1.91.03l9.71-5.41c.31-.17.52-.49.52-.84,0-.35-.18-.67-.49-.84l-16.25-9.32c-.3-.17-.52-.53-.52-.87v-5.83c0-.35.22-.67.52-.84l5.05-2.91c.3-.17.67-.17.97,0l5.05,2.91c.3.17.49.49.49.84v4.6c0,.35.18.67.49.84.3.18.67.18.97,0l9.68-5.63c.6-.35.97-.99.97-1.68v-4.5c0-.7-.37-1.33-.97-1.68l-16.06-9.32c-.3-.17-.63-.26-.97-.26h0ZM114.87,37.43c.08,0,.18.02.26.06l5.54,3.21c.15.09.26.25.26.42v6.41c0,.17-.11.33-.26.42l-5.54,3.21c-.15.09-.34.09-.49,0l-5.54-3.21c-.15-.09-.26-.25-.26-.42v-6.41c0-.17.11-.33.26-.42l5.54-3.2c.07-.04.15-.06.23-.06h0s0,0,0,0Z"/>
  <path class="cls-1" d="M66.53,23.41c-.34,0-.67.09-.97.26l-16.16,9.29c-.6.35-.97,1.02-.97,1.72v18.65c0,.7.37,1.33.97,1.68l16.16,9.32c.6.35,1.34.35,1.94,0l16.16-9.32c.6-.35.97-.99.97-1.68v-18.65c0-.7-.37-1.37-.97-1.72l-16.16-9.29c-.3-.17-.63-.26-.97-.26h0ZM163.14,40.05c-.06,0-.14,0-.19.03l-3.11,1.81c-.12.07-.19.19-.19.32v3.56c0,.13.08.26.19.32l3.11,1.78c.12.07.24.07.36,0l3.11-1.78c.12-.07.19-.19.19-.32v-3.56c0-.13-.08-.26-.19-.32l-3.11-1.81c-.06-.03-.1-.03-.16-.03h0Z"/>
</svg>