<?xml version="1.0" encoding="UTF-8"?>
<svg id="Layer_1" data-name="Layer 1" xmlns="http://www.w3.org/2000/svg" width="230" height="119.73" viewBox="0 0 230 119.73">
  <defs>
    <style>
      .cls-1 {
        stroke-width: 0px;
      }
    </style>
  </defs>
  <path class="cls-1" d="M115,0C51.49,0,0,26.8,0,59.86s51.49,59.86,115,59.86,115-26.8,115-59.86S178.51,0,115,0ZM64.59,78.77h-14.18l-3.15,16.54h-14.97l12.6-63.8h29.14c12.6.79,18.9,7.09,18.9,18.12,0,18.9-14.97,29.93-28.36,29.14ZM123.89,43.32h-11.82l-7.09,35.45h-14.97l12.6-63.8h14.97l-3.15,16.54h14.18c12.6.79,17.33,7.09,15.75,14.97l-5.51,32.29h-15.75l5.51-29.14c.79-3.94.79-6.3-4.73-6.3ZM170.14,78.77h-14.18l-3.15,16.54h-14.97l12.6-63.8h29.14c12.6.79,18.9,7.09,18.9,18.12,0,18.9-14.97,29.93-28.36,29.14Z"/>
  <path class="cls-1" d="M67.74,43.32h-10.24l-3.94,23.63h0s9.45,0,9.45,0c7.09-.79,13.39-3.15,14.18-16.54,0-4.73-3.94-7.09-9.45-7.09Z"/>
  <path class="cls-1" d="M173.29,43.32h-10.24l-3.94,23.63h9.45c7.09-.79,13.39-3.15,14.18-16.54,0-4.73-3.94-7.09-9.45-7.09Z"/>
</svg>