<?xml version="1.0" encoding="UTF-8"?>
<svg id="Layer_1" data-name="Layer 1" xmlns="http://www.w3.org/2000/svg" width="300" height="300" viewBox="0 0 300 300">
  <defs>
    <style>
      .cls-1 {
        stroke-width: 0px;
      }
    </style>
  </defs>
  <path class="cls-1" d="M265,150.02c0-15.24-19.08-29.68-48.33-38.63,6.75-29.82,3.75-53.54-9.47-61.13-3.05-1.78-6.61-2.63-10.5-2.63v10.45c2.16,0,3.89.42,5.34,1.22,6.38,3.66,9.14,17.58,6.99,35.49-.52,4.41-1.36,9.05-2.39,13.78-9.19-2.25-19.22-3.98-29.77-5.11-6.33-8.67-12.89-16.55-19.5-23.44,15.28-14.21,29.63-21.99,39.38-21.99v-10.45c-12.89,0-29.77,9.19-46.83,25.13-17.06-15.85-33.94-24.94-46.83-24.94v10.45c9.7,0,24.1,7.74,39.38,21.85-6.56,6.89-13.13,14.72-19.36,23.39-10.6,1.13-20.63,2.86-29.82,5.16-1.08-4.69-1.88-9.24-2.44-13.6-2.2-17.91.52-31.83,6.84-35.54,1.41-.84,3.23-1.22,5.39-1.22v-10.45c-3.94,0-7.5.84-10.6,2.63-13.17,7.59-16.13,31.27-9.33,60.99-29.16,9-48.15,23.39-48.15,38.58s19.08,29.68,48.33,38.63c-6.75,29.82-3.75,53.54,9.47,61.13,3.05,1.78,6.61,2.63,10.55,2.63,12.89,0,29.77-9.19,46.83-25.13,17.06,15.85,33.94,24.94,46.83,24.94,3.94,0,7.5-.84,10.6-2.63,13.17-7.59,16.13-31.27,9.33-60.99,29.07-8.95,48.05-23.39,48.05-38.58h0ZM203.96,118.75c-1.73,6.05-3.89,12.28-6.33,18.52-1.92-3.75-3.94-7.5-6.14-11.25-2.16-3.75-4.45-7.41-6.75-10.97,6.66.98,13.08,2.2,19.22,3.7h0ZM182.49,168.68c-3.66,6.33-7.41,12.33-11.3,17.91-6.99.61-14.06.94-21.19.94s-14.16-.33-21.1-.89c-3.89-5.58-7.69-11.53-11.35-17.81-3.56-6.14-6.8-12.38-9.75-18.66,2.91-6.28,6.19-12.56,9.7-18.71,3.66-6.33,7.41-12.33,11.3-17.91,6.99-.61,14.06-.94,21.19-.94s14.16.33,21.1.89c3.89,5.58,7.69,11.53,11.35,17.81,3.56,6.14,6.8,12.38,9.75,18.66-2.95,6.28-6.19,12.56-9.7,18.71h0ZM197.63,162.59c2.53,6.28,4.69,12.56,6.47,18.66-6.14,1.5-12.61,2.77-19.32,3.75,2.3-3.61,4.59-7.31,6.75-11.11,2.16-3.75,4.17-7.55,6.09-11.3h0ZM150.09,212.61c-4.36-4.5-8.72-9.52-13.03-15,4.22.19,8.53.33,12.89.33s8.77-.09,13.03-.33c-4.22,5.49-8.58,10.5-12.89,15ZM115.21,185c-6.66-.98-13.08-2.2-19.22-3.7,1.73-6.05,3.89-12.28,6.33-18.52,1.92,3.75,3.94,7.5,6.14,11.25s4.45,7.41,6.75,10.97ZM149.86,87.44c4.36,4.5,8.72,9.52,13.03,15-4.22-.19-8.53-.33-12.89-.33s-8.77.09-13.03.33c4.22-5.49,8.58-10.5,12.89-15ZM115.17,115.05c-2.3,3.61-4.59,7.31-6.75,11.11-2.16,3.75-4.17,7.5-6.09,11.25-2.53-6.28-4.69-12.56-6.47-18.66,6.14-1.45,12.61-2.72,19.32-3.7h0ZM72.74,173.75c-16.6-7.08-27.33-16.36-27.33-23.72s10.74-16.69,27.33-23.72c4.03-1.73,8.44-3.28,12.99-4.74,2.67,9.19,6.19,18.75,10.55,28.55-4.31,9.75-7.78,19.27-10.41,28.41-4.64-1.45-9.05-3.05-13.13-4.78h0ZM97.96,240.74c-6.38-3.66-9.14-17.58-6.99-35.49.52-4.41,1.36-9.05,2.39-13.78,9.19,2.25,19.22,3.98,29.77,5.11,6.33,8.67,12.89,16.55,19.5,23.44-15.28,14.21-29.63,21.99-39.38,21.99-2.11-.05-3.89-.47-5.3-1.27h0ZM209.16,205.02c2.2,17.91-.52,31.83-6.84,35.54-1.41.84-3.23,1.22-5.39,1.22-9.7,0-24.1-7.74-39.38-21.85,6.56-6.89,13.13-14.72,19.36-23.39,10.6-1.13,20.63-2.86,29.82-5.16,1.08,4.74,1.92,9.28,2.44,13.64ZM227.21,173.75c-4.03,1.73-8.44,3.28-12.99,4.74-2.67-9.19-6.19-18.75-10.55-28.55,4.31-9.75,7.78-19.27,10.41-28.41,4.64,1.45,9.05,3.05,13.17,4.78,16.6,7.08,27.33,16.36,27.33,23.72-.05,7.36-10.78,16.69-27.38,23.72h0Z"/>
  <circle class="cls-1" cx="149.95" cy="150.02" r="21.42"/>
</svg>