<?xml version="1.0" encoding="UTF-8"?>
<svg id="Layer_1" data-name="Layer 1" xmlns="http://www.w3.org/2000/svg" width="300" height="300" viewBox="0 0 300 300">
  <defs>
    <style>
      .cls-1 {
        stroke-width: 0px;
      }
    </style>
  </defs>
  <path class="cls-1" d="M35,35v230h230V35H35ZM166.44,159.77h-29.9v85.1h-21.22v-85.1h-29.9v-9.37h0l.17.06v-9.43l40.25-.17c22.14,0,40.36.06,40.36.23.23.12.23,4.31.23,9.49v9.2ZM244.3,227.4c-3.68,9.6-12.65,16.1-25.47,18.23-4.02.69-13.23.58-17.54-.17-9.2-1.73-18-6.33-23.4-12.25-2.13-2.3-6.21-8.45-5.98-8.85l2.19-1.38,8.62-5,6.5-3.8,1.49,2.01c1.9,2.99,6.15,7.02,8.62,8.4,7.48,3.85,17.48,3.33,22.43-1.15,2.13-1.95,3.05-4.02,3.05-6.9,0-2.65-.4-3.85-1.73-5.87-1.84-2.53-5.52-4.6-15.87-9.2-11.9-5.06-16.96-8.28-21.68-13.23-2.7-2.99-5.18-7.65-6.33-11.5-.86-3.34-1.15-11.5-.35-14.78,2.47-11.5,11.16-19.55,23.58-21.85,4.02-.8,13.51-.46,17.48.57l-.11.11c5.86,1.38,10.35,4.02,14.37,8.22,2.13,2.3,5.29,6.32,5.52,7.36,0,.35-9.95,7.07-15.99,10.81-.23.17-1.15-.8-2.07-2.3-2.99-4.25-6.04-6.09-10.81-6.44-6.9-.46-11.5,3.16-11.5,9.2,0,1.84.35,2.88,1.03,4.37,1.55,3.16,4.43,5.06,13.34,8.97,16.45,7.07,23.57,11.73,27.89,18.4,4.89,7.47,5.98,19.2,2.7,28Z"/>
</svg>