<?xml version="1.0" encoding="UTF-8"?>
<svg id="Layer_1" data-name="Layer 1" xmlns="http://www.w3.org/2000/svg" width="300" height="300" viewBox="0 0 300 300">
  <defs>
    <style>
      .cls-1 {
        stroke-width: 0px;
      }
    </style>
  </defs>
  <path class="cls-1" d="M51.35,150c0,39.05,22.69,72.79,55.6,88.79L59.89,109.85c-5.64,12.63-8.55,26.31-8.54,40.15ZM216.59,145.02c0-12.19-4.38-20.63-8.14-27.21-5-8.13-9.69-15.01-9.69-23.13,0-9.07,6.88-17.51,16.57-17.51.44,0,.85.05,1.28.08-17.55-16.08-40.93-25.9-66.62-25.9-34.46,0-64.79,17.68-82.43,44.47,2.31.07,4.5.12,6.35.12,10.32,0,26.29-1.25,26.29-1.25,5.32-.31,5.95,7.5.63,8.13,0,0-5.34.63-11.29.94l35.93,106.86,21.59-64.75-15.37-42.11c-5.31-.31-10.34-.94-10.34-.94-5.32-.31-4.69-8.44.62-8.13,0,0,16.29,1.25,25.98,1.25,10.32,0,26.29-1.25,26.29-1.25,5.32-.31,5.95,7.5.63,8.13,0,0-5.36.63-11.29.94l35.65,106.05,9.84-32.88c4.26-13.64,7.51-23.45,7.51-31.89h0ZM151.73,158.63l-29.6,86.01c9.05,2.67,18.43,4.02,27.87,4.02,11.49,0,22.5-1.99,32.76-5.59-.27-.43-.51-.89-.7-1.36l-30.33-83.08h0ZM236.56,102.67c.42,3.14.66,6.52.66,10.14,0,10.01-1.87,21.26-7.5,35.33l-30.13,87.12c29.33-17.1,49.05-48.88,49.05-85.27,0-17.15-4.38-33.28-12.09-47.33h0ZM150,35c-63.41,0-115,51.59-115,114.99s51.59,115,115,115,115-51.58,115-115c0-63.41-51.6-114.99-115-114.99h0ZM150,259.73c-60.5,0-109.73-49.22-109.73-109.73s49.22-109.72,109.73-109.72,109.72,49.22,109.72,109.72-49.22,109.73-109.72,109.73Z"/>
</svg>